#!OML:ASF Y:\EmotionMaleHayes\Project 1\Capture day 1\Session 1\Male1.ASF
:FULLY-SPECIFIED
:DEGREES
1
root -29.6704 17.0614 0.989039 18.7208 85.1079 17.9899
lowerback 3.61556 1.30939 -3.33908
upperback 0.298734 1.61417 -0.107291
thorax -1.8089 0.833578 1.67751
lowerneck -20.254 3.50813 4.47018
upperneck 26.3834 4.65334 -2.75234
head 12.2528 2.27984 -1.00317
rclavicle 1.43513e-014 8.13154e-015
rhumerus 0 0 0
rradius 0
rwrist 0
rhand 0 0
rfingers 0
rthumb 0 0
lclavicle 1.43513e-014 8.13154e-015
lhumerus 0 0 0
lradius 0
lwrist 0
lhand 0 0
lfingers 0
lthumb 0 0
rfemur 6.92539 -3.61812 13.7805
rtibia 2.97056
rfoot -15.1202 -0.701749
rtoes 0.858117
lfemur 10.9857 -0.463016 -17.1082
ltibia -2.95417
lfoot -11.4483 11.6084
ltoes -6.99707
2
root -29.675 17.0676 0.988658 15.0402 85.1744 14.2537
lowerback 3.61617 1.35827 -2.90574
upperback 0.284717 1.69616 -0.0982739
thorax -1.81571 0.871168 1.43954
lowerneck -20.2554 3.47855 4.5737
upperneck 26.3394 4.57974 -2.77873
head 12.2362 2.25345 -1.04294
rclavicle 1.7667e-014 -5.91384e-015
rhumerus 0 0 0
rradius 0
rwrist 0
rhand 0 0
rfingers 0
rthumb 0 0
lclavicle 1.7667e-014 -5.91384e-015
lhumerus 0 0 0
lradius 0
lwrist 0
lhand 0 0
lfingers 0
lthumb 0 0
rfemur 6.83649 -3.35944 14.2658
rtibia 2.92615
rfoot -15.1318 -1.04829
rtoes 0.942024
lfemur 10.6363 0.716191 -16.2579
ltibia -2.39605
lfoot -11.3197 10.4113
ltoes -7.35671
3
root -29.6774 17.068 0.988728 14.8758 85.1995 14.0477
lowerback 3.59719 1.35321 -2.88384
upperback 0.265024 1.69059 -0.0870297
thorax -1.82476 0.868485 1.43929
lowerneck -20.2067 3.48147 4.55812
upperneck 26.2783 4.58266 -2.76119
head 12.2016 2.2556 -1.03401
rclavicle 1.08415e-014 1.88845e-015
rhumerus 0 0 0
rradius 0
rwrist 0
rhand 0 0
rfingers 0
rthumb 0 0
lclavicle 1.08415e-014 1.88845e-015
lhumerus 0 0 0
lradius 0
lwrist 0
lhand 0 0
lfingers 0
lthumb 0 0
rfemur 6.7802 -3.30536 14.3185
rtibia 2.93032
rfoot -15.1373 -1.18946
rtoes 0.823153
lfemur 10.4987 0.948627 -16.1279
ltibia -2.27399
lfoot -11.2893 10.1814
ltoes -7.19267
4
root -29.679 17.0674 0.989397 14.9145 85.2058 14.0231
lowerback 3.55041 1.37258 -2.85048
upperback 0.245528 1.71836 -0.11788
thorax -1.81795 0.882047 1.38831
lowerneck -20.2916 3.44513 4.60193
upperneck 26.3899 4.5274 -2.79146
head 12.2623 2.23146 -1.06066
rclavicle 2.51432e-015 -5.06901e-015
rhumerus 0 0 0
rradius 0
rwrist 0
rhand 0 0
rfingers 0
rthumb 0 0
lclavicle 2.51432e-015 -5.06901e-015
lhumerus 0 0 0
lradius 0
lwrist 0
lhand 0 0
lfingers 0
lthumb 0 0
rfemur 6.70098 -3.2778 14.336
rtibia 2.93288
rfoot -15.1312 -1.17128
rtoes 1.15744
lfemur 10.4772 0.455476 -16.2802
ltibia -2.41531
lfoot -11.3418 10.6793
ltoes -7.20551
5
root -29.68 17.068 0.989223 13.512 85.2084 12.6173
lowerback 3.56373 1.37889 -2.73429
upperback 0.237633 1.7311 -0.0903174
thorax -1.8315 0.887713 1.35044
lowerneck -20.2901 3.47585 4.55189
upperneck 26.3546 4.55133 -2.67876
head 12.2446 2.25142 -1.00578
rclavicle -8.27907e-015 -4.89507e-015
rhumerus 0 0 0
rradius 0
rwrist 0
rhand 0 0
rfingers 0
rthumb 0 0
lclavicle -8.27907e-015 -4.89507e-015
lhumerus 0 0 0
lradius 0
lwrist 0
lhand 0 0
lfingers 0
lthumb 0 0
rfemur 6.68414 -3.29149 14.4739
rtibia 2.93627
rfoot -15.0953 -1.03782
rtoes 1.86596
lfemur 10.519 0.19438 -16.2386
ltibia -2.47413
lfoot -11.4013 10.9682
ltoes -6.71243
6
root -29.6826 17.0704 0.988674 12.5369 85.1647 11.7278
lowerback 3.8191 1.35412 -2.78303
upperback 0.135578 1.68746 0.00993011
thorax -2.08211 0.870549 1.47529
lowerneck -20.162 3.53676 4.48656
upperneck 26.4199 4.66917 -2.65498
head 12.2472 2.30419 -0.967478
rclavicle -5.00534e-015 9.29318e-015
rhumerus -34.3816 9.122 -91.9586
rradius 30.818
rwrist 5.60878
rhand -8.48811 -36.5943
rfingers 7.12502
rthumb 17.4391 -65.8321
lclavicle -5.00534e-015 9.29318e-015
lhumerus -31.9021 -6.62891 91.0338
lradius 24.0208
lwrist -12.1492
lhand -17.4991 -25.9356
lfingers 7.12502
lthumb 8.75369 3.86289
rfemur 6.74183 -3.28992 14.5425
rtibia 2.97313
rfoot -15.0425 -0.931381
rtoes 2.54248
lfemur 10.5209 0.784372 -15.9785
ltibia -2.25112
lfoot -11.3157 10.4737
ltoes -5.22347
7
root -29.687 17.0723 0.990376 10.0571 85.1635 9.24333
lowerback 4.15372 1.33107 -2.58642
upperback -0.0910623 1.65232 0.06949
thorax -2.49755 0.857769 1.4173
lowerneck -20.1061 3.58365 4.54796
upperneck 26.6752 4.74965 -2.6823
head 12.3431 2.34799 -0.974222
rclavicle -1.36975e-015 2.03754e-015
rhumerus -34.6605 9.26818 -92.1457
rradius 30.8808
rwrist 5.39052
rhand -8.74594 -36.7947
rfingers 7.12502
rthumb 17.191 -66.0542
lclavicle -1.36975e-015 2.03754e-015
lhumerus -32.271 -6.69512 91.0825
lradius 24.085
lwrist -11.9637
lhand -16.3534 -26.1742
lfingers 7.12502
lthumb 9.85924 3.57495
rfemur 6.68528 -3.17493 14.8469
rtibia 3.02252
rfoot -15.0337 -1.09136
rtoes 2.3342
lfemur 10.4335 1.19826 -15.5626
ltibia -2.06127
lfoot -11.2555 10.0862
ltoes -3.78189
8
root -29.689 17.072 0.991734 10.6187 85.1385 9.7179
lowerback 3.93993 1.33251 -2.66519
upperback -0.0207544 1.65807 0.0667861
thorax -2.30766 0.858796 1.46432
lowerneck -20.2616 3.62255 4.71625
upperneck 26.755 4.81058 -2.90138
head 12.4204 2.36076 -1.07294
rclavicle 2.72475e-015 -3.97569e-015
rhumerus -34.5518 9.36173 -92.1332
rradius 30.9483
rwrist 5.38425
rhand -8.81743 -36.6849
rfingers 7.12502
rthumb 17.1222 -65.9505
lclavicle 2.72475e-015 -3.97569e-015
lhumerus -32.1143 -6.74572 91.084
lradius 24.0648
lwrist -11.9115
lhand -17.4904 -25.9085
lfingers 7.12502
lthumb 8.76214 3.88958
rfemur 6.56212 -3.20306 14.8005
rtibia 3.04221
rfoot -15.0521 -1.15437
rtoes 1.46663
lfemur 10.3145 1.23359 -15.5962
ltibia -2.02602
lfoot -11.2224 10.0701
ltoes -3.82781
